{"title":"Pixels (2015) 720p x264 AAC ITA SUB ITA ENG BlueRay RIP","uid":12776317,"size":3890951541,"categoryP":"video","categoryS":"hd___movies","magnet":"?xt=urn:btih:6a3a57f7bd79d19b11011b7d7c83885a8c84f3c9&amp;dn=Pixels+%282015%29+720p+x264+AAC+ITA+SUB+ITA+ENG+BlueRay+RIP&amp;tr=udp%3A%2F%2Ftracker.leechers-paradise.org%3A6969&amp;tr=udp%3A%2F%2Fzer0day.ch%3A1337&amp;tr=udp%3A%2F%2Fopen.demonii.com%3A1337&amp;tr=udp%3A%2F%2Ftracker.coppersurfer.tk%3A6969&amp;tr=udp%3A%2F%2Fexodus.desync.com%3A6969","seeders":3,"leechers":3,"uploader":"xtron197777","files":1,"time":1447741863,"description":"Pixels (2015)\r\n\r\n-: Cast :-\r\n\r\nAdam Sandler: Sam Brenner\r\nKevin James: Presidente William Cooper\r\nMichelle Monaghan: Violet Van Patten\r\nPeter Dinklage: Eddie Plant\r\nJosh Gad: Ludlow Lamonsoff\r\nBrian Cox: Ammiraglio Porter\r\n\r\n-: Trama :-\r\n\r\nNel 1982 la NASA invia nello spazio una capsula del tempo contenente immagini e filmati della cultura terrestre nella speranza di contattare forme di vita intelligenti. Sfortunatamente, gli extraterrestri interpretano in modo sbagliato i vari videogiochi per l'arcade classici contenuti nella capsula, considerandoli una dichiarazione di guerra, credendo che Pac-Man rappresenti la Terra e i fantasmi che mangia rappresentino loro.\r\nGli alieni decidono quindi di invadere la Terra con delle gigantesche versioni dei personaggi dei videogiochi, tra cui Pac-Man, Donkey Kong e Centipede. Il presidente degli Stati Uniti d'America chiede aiuto a Sam Brenner, un suo amico di infanzia ed ex-campione di videogiochi arcade, che forma una squadra di retrogamer suoi amici per combattere gli alieni e salvare il pianeta.\r\n\r\n-: Info :-\r\n\r\n\r\nGeneral \r\nFormat profile : Base Media \r\nCodec ID : isom \r\nFile size : 3.62 GiB \r\nDuration : 1h 45mn \r\nOverall bit rate mode : Variable \r\nOverall bit rate : 4 902 Kbps \r\nEncoded date : UTC 2015-11-15 10:30:38 \r\nTagged date : UTC 2015-11-15 10:30:38 \r\nWriting application : Lavf57.3.100 \r\n\r\nVideo \r\nID : 1 \r\nFormat : AVC \r\nFormat/Info : Advanced Video Codec \r\nFormat profile :    \r\nFormat settings, CABAC : Yes \r\nFormat settings, ReFrames : 4 frames \r\nCodec ID : avc1 \r\nCodec ID/Info : Advanced Video Coding \r\nDuration : 1h 45mn \r\nBit rate : 4 767 Kbps \r\nWidth : 1 280 pixels \r\nHeight : 536 pixels \r\nDisplay aspect ratio : 2.40:1 \r\nFrame rate mode : Variable \r\nFrame rate : 23.976 fps \r\nMinimum frame rate : 23.564 fps \r\nMaximum frame rate : 24.390 fps \r\nColor space : YUV \r\nChroma subsampling : 4:2:0 \r\nBit depth : 8 bits \r\nScan type : Progressive \r\nBits/(Pixel*Frame) : 0.290 \r\nStream size : 3.52 GiB (97%) \r\nWriting library : x264 core 146 r2538 121396c \r\nEncoding settings : cabac=1 / ref=2 / deblock=1:-2:-1 / analyse=0x3:0x113 / me=hex / subme=6 / psy=1 / psy_rd=1.00:0.00 / mixed_ref=1 / me_range=16 / chroma_me=1 / trellis=1 / 8x8dct=1 / cqm=0 / deadzone=21,11 / fast_pskip=1 / chroma_qp_offset=-2 / threads=12 / lookahead_threads=2 / sliced_threads=0 / nr=0 / decimate=0 / interlaced=0 / bluray_compat=0 / constrained_intra=0 / bframes=3 / b_pyramid=2 / b_adapt=1 / b_bias=0 / direct=1 / weightb=1 / open_gop=0 / weightp=1 / keyint=240 / keyint_min=24 / scenecut=40 / intra_refresh=0 / rc_lookahead=30 / rc=2pass / mbtree=1 / bitrate=4767 / ratetol=1.0 / qcomp=0.60 / qpmin=0 / qpmax=69 / qpstep=4 / cplxblur=20.0 / qblur=0.5 / vbv_maxrate=50000 / vbv_bufsize=50000 / nal_hrd=none / filler=0 / ip_ratio=1.40 / aq=1:1.00 \r\nEncoded date : UTC 2015-11-15 10:30:38 \r\nTagged date : UTC 2015-11-15 10:30:38 \r\n\r\nAudio \r\nID : 2 \r\nFormat : AAC \r\nFormat/Info : Advanced Audio Codec \r\nFormat profile : LC \r\nCodec ID : 40 \r\nDuration : 1h 45mn \r\nBit rate mode : Constant \r\nBit rate : 128 Kbps \r\nChannel(s) : 2 channels \r\nChannel positions : Front: L R \r\nSampling rate : 48.0 KHz \r\nCompression mode : Lossy \r\nStream size : 96.9 MiB (3%) \r\nLanguage : Italian \r\nEncoded date : UTC 2015-11-15 10:30:38 \r\nTagged date : UTC 2015-11-15 10:30:38 \r\n\r\nText #1 \r\nID : 3 \r\nFormat : Timed Text \r\nMuxing mode : sbtl \r\nCodec ID : tx3g \r\nDuration : 1h 37mn \r\nBit rate mode : Variable \r\nBit rate : 1 bps \r\nStream size : 455 Bytes (0%) \r\nLanguage : Italian \r\nEncoded date : UTC 2015-11-15 10:30:38 \r\nTagged date : UTC 2015-11-15 10:30:38 \r\n\r\nText #2 \r\nID : 4 \r\nFormat : Timed Text \r\nMuxing mode : sbtl \r\nCodec ID : tx3g \r\nDuration : 1h 40mn \r\nBit rate mode : Variable \r\nBit rate : 78 bps \r\nStream size : 57.9 KiB (0%) \r\nLanguage : Italian \r\nEncoded date : UTC 2015-11-15 10:30:38 \r\nTagged date : UTC 2015-11-15 10:30:38 \r\n\r\nText #3 \r\nID : 5 \r\nFormat : Timed Text \r\nMuxing mode : sbtl \r\nCodec ID : tx3g \r\nDuration : 33mn 28s \r\nBit rate mode : Variable \r\nBit rate : 1 bps \r\nStream size : 237 Bytes (0%) \r\nLanguage : English \r\nEncoded date : UTC 2015-11-15 10:30:38 \r\nTagged date : UTC 2015-11-15 10:30:38 \r\n\r\nText #4 \r\nID : 6 \r\nFormat : Timed Text \r\nMuxing mode : sbtl \r\nCodec ID : tx3g \r\nDuration : 1h 37mn \r\nBit rate mode : Variable \r\nBit rate : 84 bps \r\nStream size : 60.0 KiB (0%) \r\nLanguage : English \r\nEncoded date : UTC 2015-11-15 10:30:38 \r\nTagged date : UTC 2015-11-15 10:30:38","torrent":{"xt":"urn:btih:6a3a57f7bd79d19b11011b7d7c83885a8c84f3c9","amp;dn":"Pixels+%282015%29+720p+x264+AAC+ITA+SUB+ITA+ENG+BlueRay+RIP","amp;tr":["udp%3A%2F%2Ftracker.leechers-paradise.org%3A6969","udp%3A%2F%2Fzer0day.ch%3A1337","udp%3A%2F%2Fopen.demonii.com%3A1337","udp%3A%2F%2Ftracker.coppersurfer.tk%3A6969","udp%3A%2F%2Fexodus.desync.com%3A6969"],"infoHash":"6a3a57f7bd79d19b11011b7d7c83885a8c84f3c9","infoHashBuffer":{"type":"Buffer","data":[106,58,87,247,189,121,209,155,17,1,27,125,124,131,136,90,140,132,243,201]},"announce":[],"urlList":[]}}